<svg xmlns="http://www.w3.org/2000/svg" viewBox="0 0 640 640" role="img" aria-labelledby="title desc">
  <title id="title">at0m741 technical avatar</title>
  <desc id="desc">A dark technical mark with a monogram, grid, and signal traces.</desc>
  <defs>
    <linearGradient id="panel" x1="72" x2="568" y1="80" y2="560" gradientUnits="userSpaceOnUse">
      <stop stop-color="#17211f"/>
      <stop offset="0.58" stop-color="#101516"/>
      <stop offset="1" stop-color="#251d15"/>
    </linearGradient>
    <linearGradient id="trace" x1="128" x2="512" y1="172" y2="464" gradientUnits="userSpaceOnUse">
      <stop stop-color="#74d4c0"/>
      <stop offset="1" stop-color="#d7a84f"/>
    </linearGradient>
  </defs>
  <rect width="640" height="640" fill="#0b0f10"/>
  <rect x="68" y="68" width="504" height="504" rx="28" fill="url(#panel)" stroke="#31413d" stroke-width="2"/>
  <path d="M112 164H528M112 236H528M112 308H528M112 380H528M112 452H528M164 112V528M236 112V528M308 112V528M380 112V528M452 112V528" stroke="#263532" stroke-width="1"/>
  <path d="M122 438h62l38-106 54 164 70-260 46 126h126" fill="none" stroke="url(#trace)" stroke-linecap="round" stroke-linejoin="round" stroke-width="9"/>
  <circle cx="184" cy="438" r="10" fill="#74d4c0"/>
  <circle cx="346" cy="236" r="10" fill="#9bd6ca"/>
  <circle cx="518" cy="362" r="10" fill="#d7a84f"/>
  <rect x="155" y="172" width="330" height="214" rx="12" fill="#0b0f10" opacity="0.86" stroke="#40514d"/>
  <text x="320" y="263" text-anchor="middle" font-family="IBM Plex Mono, SFMono-Regular, Menlo, Consolas, monospace" font-size="74" font-weight="700" fill="#dfe9e4">at0m</text>
  <text x="320" y="330" text-anchor="middle" font-family="IBM Plex Mono, SFMono-Regular, Menlo, Consolas, monospace" font-size="52" font-weight="700" fill="#d7a84f">741</text>
  <path d="M178 418h284" stroke="#40514d" stroke-width="2"/>
  <text x="320" y="455" text-anchor="middle" font-family="IBM Plex Mono, SFMono-Regular, Menlo, Consolas, monospace" font-size="18" fill="#91a39c">SYSTEMS / COMPILERS / HPC</text>
</svg>
