<svg xmlns="http://www.w3.org/2000/svg" viewBox="0 0 920 560" role="img" aria-labelledby="title desc">
  <title id="title">Systems map for at0m741</title>
  <desc id="desc">A technical map linking bootchain research, MLIR, Tensorium, HPC kernels, and numerical relativity.</desc>
  <rect width="920" height="560" fill="#0b0f10"/>
  <path d="M72 88H848M72 168H848M72 248H848M72 328H848M72 408H848M152 48V512M272 48V512M392 48V512M512 48V512M632 48V512M752 48V512" stroke="#182320" stroke-width="1"/>
  <rect x="72" y="68" width="776" height="424" rx="10" fill="#101617" stroke="#2b3b37" stroke-width="2"/>
  <rect x="120" y="114" width="196" height="92" rx="6" fill="#0d1213" stroke="#315249"/>
  <rect x="606" y="114" width="196" height="92" rx="6" fill="#0d1213" stroke="#55452a"/>
  <rect x="362" y="238" width="196" height="92" rx="6" fill="#0d1213" stroke="#315249"/>
  <rect x="120" y="360" width="196" height="92" rx="6" fill="#0d1213" stroke="#55452a"/>
  <rect x="606" y="360" width="196" height="92" rx="6" fill="#0d1213" stroke="#315249"/>
  <path d="M316 160H460V238M606 160H460V238M460 330V406H316M460 330V406H606" fill="none" stroke="#74d4c0" stroke-width="3" stroke-linecap="round"/>
  <path d="M218 206V360M704 206V360" fill="none" stroke="#d8ad5b" stroke-width="2" stroke-dasharray="8 10" stroke-linecap="round"/>
  <circle cx="460" cy="238" r="7" fill="#74d4c0"/>
  <circle cx="460" cy="330" r="7" fill="#74d4c0"/>
  <circle cx="218" cy="206" r="6" fill="#d8ad5b"/>
  <circle cx="704" cy="206" r="6" fill="#d8ad5b"/>
  <text x="218" y="146" text-anchor="middle" font-family="SFMono-Regular, Consolas, Menlo, monospace" font-size="17" fill="#d8ad5b">bootchain</text>
  <text x="218" y="174" text-anchor="middle" font-family="SFMono-Regular, Consolas, Menlo, monospace" font-size="26" fill="#eef4f1">iBoot</text>
  <text x="704" y="146" text-anchor="middle" font-family="SFMono-Regular, Consolas, Menlo, monospace" font-size="17" fill="#d8ad5b">compiler</text>
  <text x="704" y="174" text-anchor="middle" font-family="SFMono-Regular, Consolas, Menlo, monospace" font-size="26" fill="#eef4f1">MLIR</text>
  <text x="460" y="270" text-anchor="middle" font-family="SFMono-Regular, Consolas, Menlo, monospace" font-size="17" fill="#d8ad5b">core</text>
  <text x="460" y="298" text-anchor="middle" font-family="SFMono-Regular, Consolas, Menlo, monospace" font-size="26" fill="#eef4f1">Tensorium</text>
  <text x="218" y="392" text-anchor="middle" font-family="SFMono-Regular, Consolas, Menlo, monospace" font-size="17" fill="#d8ad5b">kernels</text>
  <text x="218" y="420" text-anchor="middle" font-family="SFMono-Regular, Consolas, Menlo, monospace" font-size="26" fill="#eef4f1">SIMD/HPC</text>
  <text x="704" y="392" text-anchor="middle" font-family="SFMono-Regular, Consolas, Menlo, monospace" font-size="17" fill="#d8ad5b">physics</text>
  <text x="704" y="420" text-anchor="middle" font-family="SFMono-Regular, Consolas, Menlo, monospace" font-size="26" fill="#eef4f1">Relativity</text>
  <text x="92" y="528" font-family="SFMono-Regular, Consolas, Menlo, monospace" font-size="15" fill="#7f928a">notes:// low-level systems -> compiler IR -> numerical kernels</text>
</svg>
